<svg width="220" height="220" viewBox="0 0 220 220" fill="none" xmlns="http://www.w3.org/2000/svg">
<path fill-rule="evenodd" clip-rule="evenodd" d="M75.9912 57.658C72.1412 57.658 69.1162 54.5413 69.1162 50.783V25.208C69.1162 23.3846 69.8405 21.636 71.1299 20.3466C72.4192 19.0573 74.1678 18.333 75.9912 18.333C77.8146 18.333 79.5633 19.0573 80.8526 20.3466C82.1419 21.636 82.8662 23.3846 82.8662 25.208V50.6913C82.8662 54.5413 79.8412 57.658 75.9912 57.658ZM144.008 57.658C140.158 57.658 137.133 54.5413 137.133 50.783V25.208C137.133 23.3846 137.857 21.636 139.147 20.3466C140.436 19.0573 142.185 18.333 144.008 18.333C145.831 18.333 147.58 19.0573 148.869 20.3466C150.159 21.636 150.883 23.3846 150.883 25.208V50.6913C150.883 54.5413 147.858 57.658 144.008 57.658ZM67.1109 89.1109C64.963 91.2588 64.963 94.7412 67.1109 96.8891L78.4185 108.197C81.3475 111.126 81.3475 115.874 78.4185 118.803L67.1109 130.111C64.963 132.259 64.963 135.741 67.1109 137.889C69.2588 140.037 72.7412 140.037 74.8891 137.889L86.1967 126.581C93.4214 119.357 93.4214 107.643 86.1967 100.419L74.8891 89.1109C72.7412 86.963 69.2588 86.963 67.1109 89.1109ZM162.389 89.1109C164.537 91.2588 164.537 94.7412 162.389 96.8891L151.081 108.197C148.153 111.126 148.153 115.874 151.081 118.803L162.389 130.111C164.537 132.259 164.537 135.741 162.389 137.889C160.241 140.037 156.759 140.037 154.611 137.889L143.303 126.581C136.079 119.357 136.079 107.643 143.303 100.419L154.611 89.1109C156.759 86.963 160.241 86.963 162.389 89.1109ZM149.747 172.017C152.518 173.261 155.773 172.024 157.017 169.253C158.262 166.482 157.024 163.227 154.253 161.982C141.178 156.11 130.253 152.647 118.787 152.517C107.303 152.387 95.8683 155.604 81.7362 161.987C78.9678 163.237 77.7372 166.495 78.9875 169.263C80.2378 172.032 83.4955 173.262 86.2638 172.012C99.688 165.949 109.441 163.412 118.662 163.517C127.9 163.621 137.197 166.381 149.747 172.017ZM164.634 48.6747C164.634 41.0663 173.342 36.758 179.392 41.2497C190.117 49.408 197.084 62.1497 197.084 76.7247V157.025C197.084 162.887 195.929 168.692 193.686 174.108C191.442 179.524 188.154 184.446 184.008 188.591C179.863 192.736 174.942 196.025 169.526 198.268C164.109 200.512 158.304 201.666 152.442 201.666H67.5587C55.719 201.666 44.3642 196.963 35.9922 188.591C27.6203 180.219 22.917 168.864 22.917 157.025V76.7247C22.95 74.393 23.1337 72.066 23.467 69.758C23.6503 68.383 23.9253 67.008 24.292 65.7247C24.6587 64.3497 25.0253 62.9747 25.5753 61.5997C25.6266 61.4714 25.6708 61.3503 25.7137 61.2324C25.8243 60.9289 25.9273 60.6464 26.1253 60.3163C26.492 59.1247 27.042 58.0247 27.592 56.9247C27.592 56.7413 27.6837 56.6497 27.867 56.4663C28.5835 54.9998 29.4109 53.5902 30.342 52.2497C31.0753 51.058 31.9003 49.8663 32.9087 48.7663C34.8337 46.2913 37.1253 43.9997 39.692 41.983C39.8295 41.8455 39.9899 41.7309 40.1503 41.6163C40.3107 41.5018 40.4712 41.3872 40.6087 41.2497C40.9753 40.9747 41.2503 40.7913 41.617 40.608C41.6628 40.5622 41.7087 40.5393 41.7545 40.5163C41.8003 40.4934 41.8462 40.4705 41.892 40.4247C47.8503 37.3997 55.367 41.6163 55.367 48.6747V49.5913C55.367 57.0163 59.0337 63.983 64.8087 68.0163C66.5007 69.0881 68.3168 69.9499 70.217 70.583C71.317 70.9497 72.5087 71.2247 73.792 71.3163C75.2587 71.4997 76.7253 71.4997 78.192 71.3163C79.4753 71.2247 80.667 70.9497 81.767 70.583C82.7753 70.308 83.692 69.9413 84.517 69.483L84.5172 69.4829C85.4338 69.0246 86.3504 68.5663 87.1753 68.0163C92.8587 64.4413 96.617 58.0247 96.617 50.783V41.2497C96.617 36.208 100.742 32.083 105.784 32.083H114.217C119.259 32.083 123.384 36.208 123.384 41.2497V50.783C123.384 62.883 133.834 72.5997 146.209 71.3163C156.934 70.2163 164.634 60.3163 164.634 49.5913V48.6747Z" fill="#5A616A"/>
</svg>
